<?xml version="1.0" encoding="iso-8859-1"?>
<!-- Uploaded to: SVG Repo, www.svgrepo.com, Generator: SVG Repo Mixer Tools -->
<svg fill="#000000" height="800px" width="800px" version="1.1" id="Layer_1" xmlns="http://www.w3.org/2000/svg" xmlns:xlink="http://www.w3.org/1999/xlink" 
	 viewBox="0 0 512.001 512.001" xml:space="preserve">
<g>
	<g>
		<g>
			<path d="M47.557,266.837c-8.92-16.947-16.25-37.444-10.906-51.562c3.936-10.399,15.91-17.467,35.587-21.007
				c38.154-6.862,80.698-3.379,118.233-0.308c49.438,4.049,88.49,7.245,107.681-14.106c9.084-10.106,12.063-23.776,8.856-40.639
				c-1.699-8.931,0.54-14.173,7.726-18.094c11.745-6.408,33.016-6.97,55.51-1.469c26.255,6.421,51.089,19.814,69.928,37.716
				c23.476,22.31,45.371,58.742,33.896,113.34c12.95,13.008,20.525,26.552,24.822,38.901c12.387-33.219,16.023-64.933,10.793-94.544
				c-5.524-31.272-21.248-59.97-45.473-82.991c-23.179-22.027-53.605-38.476-85.677-46.318c-31.524-7.71-60.869-5.985-80.512,4.733
				c-20.615,11.247-29.834,31.384-25.294,55.249c1.003,5.272,0.806,9.304-0.526,10.786c-0.964,1.072-5.47,4.628-22.979,5.365
				c-15.076,0.629-34.91-0.99-55.906-2.708c-39.665-3.249-84.621-6.929-127.26,0.743c-32.622,5.868-53.506,20.357-62.069,43.063
				c-12.241,32.46,6.311,71.127,20.341,93.666C29.461,286.811,36.897,276.621,47.557,266.837z"/>
			<path d="M488.728,341.587l-7.846-2.599c-0.405-16.992-7.605-47.34-48.625-70.941c-38.301-22.036-96.652-33.215-173.431-33.224
				c-76.822,0-135.146,11.165-173.438,33.183c-42.335,24.344-48.659,55.883-48.661,72.516c0,2.608,0.135,5.183,0.352,7.735h-2.649
				c-0.001,0-0.001,0-0.002,0c-9.635,0-17.446,7.811-17.448,17.445c-0.001,9.636,7.81,17.449,17.445,17.45l13,0.001
				c15.257,28.43,45.267,47.814,79.728,47.818c20.016-0.001,36.647-11.511,54.256-23.695c20.65-14.29,44.048-30.481,77.388-30.481
				c33.359,0.003,56.757,16.204,77.402,30.497c17.61,12.192,34.24,23.707,54.251,23.709h0.012c24.153,0,46.861-9.404,63.941-26.481
				c8.937-8.936,15.751-19.422,20.239-30.839l3.111,1.031c1.82,0.604,3.67,0.89,5.489,0.89c7.318,0,14.133-4.64,16.56-11.966
				C502.835,354.489,497.876,344.617,488.728,341.587z"/>
		</g>
	</g>
</g>
</svg>